<svg xmlns="http://www.w3.org/2000/svg" viewBox="0 0 376.23 203.86"><defs><style>.cls-1,.cls-14,.cls-2{fill:#fff;}.cls-2,.cls-8{font-size:26.08px;letter-spacing:-0.01em;}.cls-2{font-family:Gotham-Medium, Gotham;font-weight:500;}.cls-3{letter-spacing:-0.03em;}.cls-4{letter-spacing:-0.02em;}.cls-5{letter-spacing:-0.05em;}.cls-6{letter-spacing:-0.03em;}.cls-7{font-size:48.15px;letter-spacing:-0.01em;}.cls-9{fill:#fbb040;}.cls-10,.cls-11,.cls-13,.cls-14,.cls-9{fill-rule:evenodd;}.cls-10{fill:#27aae1;}.cls-11{fill:#8dc63f;}.cls-12{fill:#332223;}.cls-13,.cls-15,.cls-16{fill:#490e00;}.cls-16{stroke:#490e00;stroke-miterlimit:10;stroke-width:0.8px;}</style></defs><g id="Layer_2" data-name="Layer 2"><g id="Layer_1-2" data-name="Layer 1"><polygon class="cls-1" points="109.01 139.67 111.53 139.67 113.54 141.39 115.56 139.67 118.02 139.67 114.98 143.47 112.05 143.47 109.01 139.67"/><text class="cls-2" transform="translate(0 163.58)">TURI<tspan class="cls-3" x="62.72" y="0">S</tspan><tspan x="78.76" y="0">TIC</tspan><tspan class="cls-4" x="122.39" y="0">K</tspan><tspan x="140.68" y="0">A ORGANIZ</tspan><tspan class="cls-5" x="296.01" y="0">A</tspan><tspan x="315.23" y="0">CI</tspan><tspan class="cls-6" x="342.22" y="0">J</tspan><tspan x="355.89" y="0">A</tspan><tspan class="cls-7"><tspan x="78.1" y="32.1"> </tspan><tspan class="cls-8" x="92.07" y="32.1">OPŠTINE RUMA</tspan></tspan></text><path class="cls-9" d="M169,58.2c0-19.12,15.74-34.61,35.14-34.61a36.49,36.49,0,0,1,5.86.48,35.42,35.42,0,0,0-16.86-4.23c-19.4,0-35.14,15.49-35.14,34.61a34.76,34.76,0,0,0,29.29,34.11A34.5,34.5,0,0,1,169,58.2Z"/><path class="cls-10" d="M172.87,63.88C175.09,44.71,193.05,31,213,33.35a36.88,36.88,0,0,1,26,15.31,35.86,35.86,0,0,0-32.89-20.92c-19.78,0-35.81,15.49-35.81,34.61a33.43,33.43,0,0,0,4,16A33.66,33.66,0,0,1,172.87,63.88Z"/><path class="cls-11" d="M243.68,76.9c-1.71,14.77-12.78,26.28-26.9,29.72-4.2,1-18.49-4.73-28.65-6.57-10.92-2-18-19.94-16.68-31.51,2.22-19.16,20.19-32.83,40.13-30.52S245.89,57.73,243.68,76.9Z"/><rect class="cls-12" x="202.37" y="60.41" width="1.78" height="3.01"/><rect class="cls-12" x="205.88" y="60.58" width="1.78" height="3.01"/><path class="cls-13" d="M187,63.35c-.17-8.37,0-16.94,0-19.56,1.75-2,2.75-4.46-1-4.22-3.3.2-14.25-5.06-13.91-7,1.58-8.71-6-8.29-5.93-9.73A9.55,9.55,0,0,0,165,16.81a15.91,15.91,0,0,0-4.23-4.17L157.28,0l-1,.07,3.39,13.06c-1.58,3.73-1.08,2.12-1.85,5.47-.48,2.11,1.27,5.71.65,6.3-4.08,3.94-5.08,7.79-2.25,10.89,1.29,1.41-6.24,11.27-9.26,12s-4.8,2.2-1.17,4.07a.6.6,0,0,0,.4.06c5,18.13,5.58,20,11.6,45.05,0,0,8.8-3.12,15-4.94,6.64-1.93,14.31-.27,14.31-.27s1.29,1.3,1-11.28C188.15,80,187,63.87,187,63.35Z"/><path class="cls-14" d="M225.54,67.83c-3.39-1.14-6.78-5-10.16-8.25-5.26-5-3.48-7.33-10.92-8.25-2.63-.33-5.69,2.94-8.31,6.58s-8.91,8-8.91,8l-.38,10.43-1.17-8.18c-1-9.27-2.12-18.2-2.21-19-.16-1.45.13-4-3.29-3.8-2,.12-3.86,1.45-4.36.26a9.24,9.24,0,0,0-11.28-5.71c-6.35,1.71-5.76,7.42-6.41,8.79S156.7,50.8,153,51.79c-3.1.83-1.58,3.42-1.08,6.16,3.13,15.39,8.68,39.87,8.68,39.87s17.08-3.26,32-2.63a59.77,59.77,0,0,1,26.71,8.13s11.61-28.78,11.49-29.53c0-.17-.32-3.13-3-3.57C224.49,69.7,226.66,68.2,225.54,67.83Z"/><path class="cls-13" d="M165.11,62.85c-.11-2.25.74-5.26,3.17-5.5,2.87-.28,4.8,2.23,5.18,4.51.85,5.11,1.06,10.31,1.62,15.47.13,1.2.45,1.63-.8,1.81s-4.71.73-5.92.93c-.59.1-.48-.38-.64-1.09C167.52,78.1,165.31,64.35,165.11,62.85Z"/><path class="cls-13" d="M171.18,47.63a4.52,4.52,0,1,1-4.52-4.51A4.51,4.51,0,0,1,171.18,47.63Z"/><path class="cls-13" d="M229.92,111.47a43.55,43.55,0,0,0-5.65-5.42c-.5-.37-1-.74-1.5-1.1a6.87,6.87,0,0,1-.84-.68c-7-5-25.86-14.26-53.61-9.84C161,95.6,155,98.74,149.46,101.15c-.32.18-.66.37-1,.55-3.07,1.54-8.21,4.36-11.15,6.18.13.28-.2-.46-.07-.18,25.2-9.57,53.47-11.47,77.83,1.22a1.33,1.33,0,0,1,.68,1c0,.27-.39.52-.68.67-15.45,2-33.3,4.1-48.75,6.08l0,.45c9.82,2.39,39.23,5.69,35.46,6.85-.63.45-7.54,2.77-6.6,2.71,1.76-.11,10.4-2.53,14.58-4.41-7.23-1.79-14.48-3.8-20.63-5.31,0-.37,4.33-.84,5.38-.84,4.07,0,8.13,0,12.19,0h8.49c4.83,0,9.66.14,14.48-.08,3.22-.14,2.64-1.2,2.37-1.71A14.76,14.76,0,0,0,229.92,111.47Z"/><rect class="cls-15" x="201.91" y="60.23" width="1.78" height="3.01"/><rect class="cls-15" x="205.42" y="60.4" width="1.78" height="3.01"/><path class="cls-16" d="M229.61,71.17A2.67,2.67,0,0,0,226.72,70l.39-3.4A17.22,17.22,0,0,1,224,66c-2.61-.57-8.19-5.81-9.93-9.16-4.33-8.31-14.15-9.39-19.14-.46s-1.65,4.35-8,9.13c-.7.53-.6,3.37-.6,3.37a8.87,8.87,0,0,0,3.49-1.85,23.12,23.12,0,0,0,7.33-8.52c4.53-8.43,11.59-6.09,14.88.34a23.16,23.16,0,0,0,6.35,7.27c4.31,3.75,6.51,2.32,6.4,2.62-.5,1.44-.6,1.79-.6,1.79s-.31,1.07.05.65a2.86,2.86,0,0,1,3.6,1.45,5.92,5.92,0,0,0,.45.83c-.82,2.31-5.44,15.13-10.29,27.32l1.61,1c1.94-5.11,9.09-21.68,11.09-26.32a3.62,3.62,0,0,0,1.44.31c1.21-.06,2.1-1.8,2.1-1.8C232.31,73.86,231.48,74.1,229.61,71.17Z"/><path class="cls-13" d="M193.36,84.64l-.45-9.51a5.88,5.88,0,0,1,4.22-2,4.61,4.61,0,0,1,4.23,2.44l-1.6,9.32Z"/><polygon class="cls-14" points="196.35 87.01 196.99 87.04 197.63 72.91 196.99 72.88 196.35 87.01"/><polygon class="cls-14" points="201.43 79.39 192.28 78.97 192.31 78.31 201.46 78.73 201.43 79.39"/><path class="cls-13" d="M208.43,85.8,208,76.29a5.91,5.91,0,0,1,4.23-2.05,4.63,4.63,0,0,1,4.23,2.43L214.83,86Z"/><rect class="cls-1" x="204.93" y="80.78" width="14.14" height="0.68" transform="translate(121.24 289.17) rotate(-87.37)"/><rect class="cls-1" x="211.63" y="75.4" width="0.62" height="9.16" transform="translate(122.48 288.1) rotate(-87.42)"/></g></g></svg>