<?xml version="1.0" encoding="utf-8"?>
<!-- Generator: Adobe Illustrator 24.1.2, SVG Export Plug-In . SVG Version: 6.00 Build 0)  -->
<svg version="1.1" id="Layer_1" xmlns="http://www.w3.org/2000/svg" xmlns:xlink="http://www.w3.org/1999/xlink" x="0px" y="0px"
	 viewBox="0 0 1309 270" style="enable-background:new 0 0 1309 270;" xml:space="preserve">
<style type="text/css">
	.st0{fill-rule:evenodd;clip-rule:evenodd;fill:#FAAF40;}
	.st1{fill-rule:evenodd;clip-rule:evenodd;fill:#26A9E0;}
	.st2{fill-rule:evenodd;clip-rule:evenodd;fill:#8BC53F;}
	.st3{fill-rule:evenodd;clip-rule:evenodd;fill:#332223;}
	.st4{fill-rule:evenodd;clip-rule:evenodd;fill:#490D00;}
	.st5{fill-rule:evenodd;clip-rule:evenodd;fill:#FFFFFF;}
	.st6{fill:#490D00;stroke:#490D00;stroke-width:0.8;stroke-miterlimit:10;}
	.st7{fill:#490D00;}
	.st8{font-family:'GothamMedium';}
	.st9{font-size:79.8862px;}
	.st10{font-size:147.4823px;}
	.st11{letter-spacing:-1;}
</style>
<g>
	<path class="st0" d="M92.6,125.1c0-36.8,30.3-66.7,67.7-66.7c3.8,0,7.6,0.3,11.3,0.9c-9.6-5.2-20.7-8.2-32.5-8.2
		c-37.4,0-67.7,29.9-67.7,66.7c0,33,24.4,60.4,56.4,65.7C106.8,172.3,92.6,150.3,92.6,125.1z"/>
	<path class="st1" d="M100,136c4.3-36.9,38.9-63.3,77.3-58.8c21.1,2.4,39,13.7,50.1,29.5c-10.6-23.7-35-40.3-63.4-40.3
		c-38.1,0-69,29.9-69,66.7c0,11.1,2.8,21.6,7.8,30.8C100,155.1,98.9,145.7,100,136z"/>
	<path class="st2" d="M236.4,161.1c-3.3,28.5-24.6,50.6-51.8,57.3c-8.1,2-35.6-9.1-55.2-12.7c-21-3.8-34.7-38.4-32.1-60.7
		c4.3-36.9,38.9-63.3,77.3-58.8C213,90.6,240.7,124.2,236.4,161.1z"/>
	<rect x="156.8" y="129.3" class="st3" width="3.4" height="5.8"/>
	<rect x="163.6" y="129.7" class="st3" width="3.4" height="5.8"/>
	<g>
		<g>
			<path class="st4" d="M127.2,135c-0.3-16.1,0-32.6,0-37.7c3.4-3.8,5.3-8.6-1.9-8.1c-6.3,0.4-27.5-9.7-26.8-13.4
				c3-16.8-11.6-16-11.4-18.7c0.3-4.2,0.1-7.6-2.2-11.7c-2.4-4.3-8.2-8-8.2-8L70,12.9L68,13.1l6.5,25.2c-3,7.2-2.1,4.1-3.6,10.5
				c-0.9,4.1,2.4,11,1.3,12.1c-7.9,7.6-9.8,15-4.3,21c2.5,2.7-12,21.7-17.8,23.1c-5.9,1.4-9.3,4.2-2.2,7.8c0.3,0.2,0.5,0.2,0.8,0.1
				c9.6,34.9,10.8,38.6,22.4,86.8c0,0,17-6,29-9.5c12.8-3.7,27.6-0.5,27.6-0.5s2.5,2.5,2-21.7C129.4,167,127.2,136,127.2,135z"/>
			<g>
				<path class="st5" d="M201.5,143.6c-6.5-2.2-13.1-9.7-19.6-15.9c-10.1-9.6-6.7-14.1-21-15.9c-5.1-0.6-11,5.7-16,12.7
					c-5,6.9-17.2,15.4-17.2,15.4L127,160l-2.3-15.8c-1.9-17.8-4.1-35.1-4.3-36.5c-0.3-2.8,0.3-7.7-6.4-7.3c-3.9,0.2-7.4,2.8-8.4,0.5
					c-4.4-10.6-14.1-13.1-21.8-11c-12.2,3.3-11.1,14.3-12.3,16.9c-1.2,2.5-2.8,4-10,5.9c-6,1.6-3,6.6-2.1,11.9
					c6,29.7,16.7,76.8,16.7,76.8s32.9-6.3,61.7-5.1c28.8,1.2,51.5,15.7,51.5,15.7s22.4-55.4,22.1-56.9c-0.1-0.3-0.6-6-5.8-6.9
					C199.5,147.2,203.7,144.4,201.5,143.6z"/>
			</g>
		</g>
		<path class="st4" d="M85,134c-0.2-4.3,1.4-10.1,6.1-10.6c5.5-0.6,9.2,4.3,10,8.7c1.6,9.8,2,19.9,3.1,29.8c0.2,2.3,0.9,3.1-1.5,3.5
			c-2.5,0.4-9.1,1.4-11.4,1.8c-1.2,0.2-0.9-0.7-1.2-2.1C89.7,163.4,85.4,136.9,85,134z"/>
		<path class="st4" d="M96.7,104.7c0,4.8-3.9,8.7-8.7,8.7c-4.8,0-8.7-3.9-8.7-8.7c0-4.8,3.9-8.7,8.7-8.7
			C92.9,96,96.7,99.9,96.7,104.7z"/>
		<path class="st4" d="M209.9,227.7c-3.2-3.7-6.8-7.2-10.9-10.5c-1-0.7-1.9-1.4-2.9-2.1c-0.6-0.4-1.2-0.9-1.6-1.3
			c-13.5-9.7-49.8-27.5-103.3-19c-14.1,2.3-25.7,8.3-36.3,12.9c-0.6,0.4-1.3,0.7-2,1.1c-5.9,3-15.8,8.4-21.5,11.9
			c0.2,0.5-0.4-0.9-0.1-0.3c48.6-18.4,103-22.1,150,2.3c0.9,0.6,1.3,1.4,1.3,1.9c0,0.5-0.8,1-1.3,1.3c-29.8,3.8-64.2,7.9-93.9,11.7
			c0,0.3,0,0.6,0.1,0.9c18.9,4.6,75.6,11,68.3,13.2c-1.2,0.9-14.5,5.3-12.7,5.2c3.4-0.2,20.1-4.9,28.1-8.5
			c-13.9-3.4-27.9-7.3-39.7-10.2c0.1-0.7,8.3-1.6,10.4-1.6c7.8,0,15.7,0,23.5,0c5.5,0,10.9,0,16.4,0c9.3,0,18.6,0.3,27.9-0.2
			c6.2-0.3,5.1-2.3,4.6-3.3C212.7,230.7,210.6,228.5,209.9,227.7z"/>
		<rect x="156" y="129" class="st4" width="3.4" height="5.8"/>
		<rect x="162.7" y="129.3" class="st4" width="3.4" height="5.8"/>
	</g>
	<path class="st6" d="M209.3,150.1c-2.1-3.3-5.6-2.3-5.6-2.3l0.8-6.5c0,0-1.1,0.1-6.1-1c-5-1.1-15.8-11.2-19.1-17.6
		c-8.3-16-27.3-18.1-36.9-0.9c-9.8,17.5-3.2,8.4-15.3,17.6c-1.3,1-1.2,6.5-1.2,6.5s2.4-0.3,6.7-3.6c7.2-5.4,10.6-9.9,14.1-16.4
		c8.7-16.2,22.3-11.7,28.7,0.6c3.8,7.4,9.1,11.3,12.2,14c8.3,7.2,12.5,4.5,12.3,5c-1,2.8-1.2,3.5-1.2,3.5s-0.6,2.1,0.1,1.3
		c1.5-0.7,5.5-0.7,6.9,2.8c0.3,0.6,0.5,1.1,0.9,1.6c-1.6,4.4-10.5,29.2-19.8,52.6l3.1,1.9c3.7-9.8,17.5-41.8,21.4-50.7
		c1.1,0.4,2.1,0.6,2.8,0.6c2.3-0.1,4-3.5,4-3.5C214.5,155.3,212.9,155.7,209.3,150.1z"/>
	<g>
		<path class="st4" d="M139.5,176l-0.9-18.3c0,0,3.2-4,8.1-3.9c6.1,0,8.1,4.7,8.1,4.7l-3.1,18L139.5,176z"/>
		<polygon class="st5" points="145.3,180.6 146.5,180.7 147.7,153.4 146.5,153.4 		"/>
		<polygon class="st5" points="155,165.9 137.4,165.1 137.5,163.8 155.1,164.6 		"/>
	</g>
	<g>
		<path class="st4" d="M168.5,178.3l-0.9-18.3c0,0,3.2-4,8.1-3.9c6.1,0,8.1,4.7,8.1,4.7l-3.1,18L168.5,178.3z"/>
		<polygon class="st5" points="174.1,182.8 175.4,182.9 176.7,155.7 175.4,155.6 		"/>
		
			<rect x="174.7" y="158.2" transform="matrix(4.509959e-02 -0.999 0.999 4.509959e-02 0.5073 334.6336)" class="st5" width="1.2" height="17.7"/>
	</g>
</g>
<polygon class="st7" points="482.9,36.8 490.6,36.8 496.7,42.1 502.9,36.8 510.5,36.8 501.1,48.4 492.2,48.4 "/>
<text transform="matrix(1 0 0 1 277.2441 110.0234)"><tspan x="0" y="0" class="st7 st8 st9">TURISTICKA ORGANIZACIJA</tspan><tspan x="181.7" y="98.3" class="st7 st8 st10 st11"> </tspan><tspan x="211.5" y="98.3" class="st7 st8 st9">OPŠTINE RUMA</tspan></text>
</svg>
